<?xml version="1.0" encoding="utf-8"?>
<!-- Generator: Adobe Illustrator 14.0.0, SVG Export Plug-In . SVG Version: 6.00 Build 43363)  -->
<!DOCTYPE svg PUBLIC "-//W3C//DTD SVG 1.1//EN" "http://www.w3.org/Graphics/SVG/1.1/DTD/svg11.dtd">
<svg version="1.1" id="Layer_1" xmlns="http://www.w3.org/2000/svg" xmlns:xlink="http://www.w3.org/1999/xlink" x="0px" y="0px"
	 width="661px" height="171px" viewBox="0 0 661 171" enable-background="new 0 0 661 171" xml:space="preserve">
<g>
	<defs>
		<rect id="SVGID_9_" x="-144.5" y="-193.5" width="960" height="560"/>
	</defs>
	<clipPath id="SVGID_1_">
		<use xlink:href="#SVGID_9_"  overflow="visible"/>
	</clipPath>
	<g clip-path="url(#SVGID_1_)">
		<defs>
			<rect id="SVGID_11_" x="-144.5" y="-193.5" width="960" height="560"/>
		</defs>
		<clipPath id="SVGID_2_">
			<use xlink:href="#SVGID_11_"  overflow="visible"/>
		</clipPath>
		<g clip-path="url(#SVGID_2_)">
			<g>
				<defs>
					<rect id="SVGID_13_" x="212.5" y="31.263" width="441.685" height="69.885"/>
				</defs>
				<clipPath id="SVGID_3_">
					<use xlink:href="#SVGID_13_"  overflow="visible"/>
				</clipPath>
				<path clip-path="url(#SVGID_3_)" fill="#681EBF" d="M410.422,89.255h-0.021V41.827h0.021V31.685H391.87v10.142h6.62v47.428
					h-6.62v10.143h6.62h12.391v-3.595h-0.459V89.255z M590.282,41.827h5.372v47.428h-5.372v10.143h5.372h11.122h0.001V89.255h-0.001
					V41.827h0.001V31.685h-16.495V41.827z M459.721,42.735h6.461v46.52h-6.461v10.143h6.461h13.905V32.354h-20.366V42.735z
					 M511.088,37.756c-5.931-3.918-13.979-5.402-24.783-5.402h-0.056v10.381h0.056c6.144,0,10.804,0.952,13.979,3.283
					c4.554,3.389,6.354,9.531,6.354,19.38c0,9.852-1.481,16.841-6.672,20.55c-2.858,2.01-7.097,3.07-12.285,3.07h-1.433v10.379
					h0.479c7.413,0,13.768-0.952,19.064-3.071c10.589-4.342,16.521-13.663,16.521-30.185
					C522.313,51.843,518.714,42.841,511.088,37.756 M654.186,31.836H637.69v0.519h-0.645v43.001c-0.53-1.695-1.695-3.601-3.391-5.72
					l-20.949-27.109v21.818l26.986,35.052h9.744V41.978h4.749V31.836z M245.069,51.322h10.142V34.827h-0.312
					c-3.634-1.21-9.393-2.496-14.831-2.786v10.765c1.642,0.068,3.32,0.307,5.001,0.613V51.322z M223.2,88.606V80.16h-10.143v16.751
					h0.078l-0.001,0.013c6.059,2.612,13.663,4.186,20.781,4.225V90.251c-0.121,0.002-0.242,0.008-0.365,0.008
					C230.448,90.259,226.787,89.636,223.2,88.606 M226.672,50.487c0-3.648,2.51-6.225,7.243-7.236V32.167
					c-13.86,1.219-21.415,8.885-21.415,20.12c0,24.645,32.896,16.713,32.896,30.146c0,3.441-2.072,5.671-5.328,6.842v11.479
					c11.352-1.557,19.61-7.874,19.61-20.121C259.678,55.881,226.672,63.394,226.672,50.487 M440.114,75.356
					c-0.531-1.695-1.696-3.601-3.39-5.719l-20.163-26.094v21.825l26.198,34.029h9.744V32.355h-12.39V75.356z M527.52,65.823
					c0,20.173,9.229,33.806,27.824,34.561V89.032c-7.522-0.838-12.15-7.766-12.15-23.209c0-15.442,4.628-22.37,12.15-23.209V31.263
					C536.749,32.02,527.52,45.65,527.52,65.823 M561.505,31.49v11.823c5.778,2.206,9.225,9.186,9.225,22.51
					c0,13.325-3.446,20.305-9.225,22.511v11.823c16.641-2.012,24.9-15.248,24.9-34.334C586.405,46.736,578.146,33.504,561.505,31.49
					 M293.671,74.508c-0.531,1.801-1.271,5.295-1.376,7.52h-0.106c0-2.118-0.848-5.508-1.482-7.732l-12.711-41.942h-14.723
					l21.184,67.043h13.133l6.861-22.023l-5.058-20.851L293.671,74.508z M357.624,40.721h6.779v50.521h-6.779v8.155h28.493v-8.155
					h-6.99V40.721h6.99v-8.366h-28.493V40.721z M337.837,32.355h13.979l-20.123,67.042h-13.45l-10.062-33.998l-0.166,0.532
					l-8.142-33.576h12.332l11.969,41.729c0.636,2.224,1.273,5.613,1.273,7.944h0.208c0.107-2.331,0.743-5.824,1.274-8.049
					L337.837,32.355z"/>
			</g>
		</g>
		<g clip-path="url(#SVGID_2_)">
			<g>
				<defs>
					<rect id="SVGID_15_" x="212.5" y="123.23" width="312.343" height="25.384"/>
				</defs>
				<clipPath id="SVGID_4_">
					<use xlink:href="#SVGID_15_"  overflow="visible"/>
				</clipPath>
				<path clip-path="url(#SVGID_4_)" fill="#A6A8AB" d="M522.746,132.069c0,2.152-1.926,3.598-4.816,3.598
					c-0.793,0-1.926-0.142-2.578-0.368c0.453-1.587,1.474-3.229,2.833-4.221c0.766-0.539,1.644-0.879,2.551-0.879
					C522.038,130.199,522.746,130.879,522.746,132.069 M524.843,132.012c0-2.294-1.813-3.398-3.967-3.398
					c-1.926,0-3.768,0.905-5.099,2.181c-1.87,1.813-3.061,4.505-3.061,7.14c0,3.145,1.983,4.93,5.071,4.93
					c1.7,0,3.57-0.538,4.731-1.275l0.368-1.785c-1.077,0.737-3.03,1.445-4.59,1.445c-2.238,0-3.343-1.275-3.343-3.456
					c0-0.34,0.029-0.737,0.085-1.048c0.822,0.283,2.068,0.425,2.975,0.425C522.265,137.169,524.843,134.761,524.843,132.012
					 M506.144,142.382c-0.311,1.444-0.82,2.634-1.643,3.484c-0.765,0.794-2.068,1.332-3.399,1.332c-1.842,0-2.946-0.907-2.946-2.125
					c0-1.587,1.417-2.012,4.08-2.323c1.955-0.228,3.371-0.765,4.221-1.785L506.144,142.382z M507.533,135.837
					c-0.34,1.558-0.794,2.918-1.53,3.796c-0.765,0.907-1.897,1.445-3.06,1.445c-1.644,0-2.663-1.076-2.663-3.116
					c0-3.655,2.578-7.819,6.828-7.819c0.65,0,1.218,0.113,1.586,0.34L507.533,135.837z M509.827,129.236
					c-0.708-0.368-1.671-0.623-2.833-0.623c-5.043,0-8.952,4.589-8.952,9.49c0,1.559,0.623,3.003,1.643,3.711
					c-2.04,0.397-3.513,1.503-3.513,3.286c0,2.125,2.068,3.514,4.93,3.514c2.267,0,4.249-0.906,5.383-2.238
					c0.991-1.161,1.502-2.493,1.983-4.674l2.748-12.834L509.827,129.236z M492.064,135.837c-0.396,1.842-0.879,3.202-1.615,4.051
					c-0.708,0.851-1.671,1.36-2.861,1.36c-1.7,0-2.663-1.19-2.663-3.286c0-3.853,3.031-7.819,6.714-7.819
					c0.539,0,1.19,0.142,1.587,0.368L492.064,135.837z M494.416,129.236c-0.709-0.368-1.729-0.623-2.748-0.623
					c-5.072,0-8.98,4.646-8.98,9.434c0,2.946,1.671,4.816,4.447,4.816c1.699,0,3.258-0.851,3.994-1.842
					c0,0.991,0.709,1.729,1.927,1.729c0.651,0,1.389-0.228,1.87-0.51l0.312-1.474c-0.341,0.198-0.936,0.368-1.331,0.368
					c-0.425,0-0.652-0.17-0.652-0.566c0-0.227,0.057-0.481,0.143-0.879l2.351-10.821L494.416,129.236z M478.126,128.868l0.935-4.335
					l-2.352,0.736l-0.765,3.599h-2.04l-0.34,1.614h2.039l-1.671,7.791c-0.142,0.681-0.227,1.359-0.227,1.784
					c0,1.814,1.303,2.806,3.173,2.806c0.992,0,2.097-0.283,2.862-0.766l0.34-1.643c-0.652,0.425-1.645,0.765-2.522,0.765
					c-0.99,0-1.643-0.481-1.643-1.502c0-0.255,0.057-0.736,0.142-1.133l1.729-8.103h3.286l0.34-1.614H478.126z M466.652,128.868
					l-0.341,1.614h1.87l-1.955,9.122c-0.112,0.482-0.197,1.077-0.197,1.474c0,1.274,0.99,1.785,1.982,1.785
					c0.708,0,1.445-0.256,1.87-0.511l0.283-1.473c-0.34,0.198-0.878,0.368-1.275,0.368c-0.425,0-0.651-0.17-0.651-0.566
					c0-0.227,0.057-0.481,0.142-0.879l2.323-10.935H466.652z M471.723,124.73c0-0.65-0.51-1.104-1.161-1.104
					c-0.879,0-1.699,0.794-1.699,1.672c0,0.652,0.453,1.105,1.104,1.105C470.817,126.403,471.723,125.61,471.723,124.73
					 M464.924,128.698c-0.17-0.058-0.623-0.085-0.907-0.085c-1.586,0-2.945,0.878-3.796,2.322l0.113-2.067h-3.399l-0.34,1.614h1.87
					l-2.606,12.125h2.182l1.275-5.808c0.509-2.323,1.019-4.221,2.038-5.298c0.596-0.623,1.332-0.991,2.353-0.991
					c0.283,0,0.651,0.058,0.793,0.085L464.924,128.698z M452.204,132.069c0,2.152-1.927,3.598-4.817,3.598
					c-0.793,0-1.926-0.142-2.578-0.368c0.454-1.587,1.475-3.229,2.833-4.221c0.766-0.539,1.645-0.879,2.551-0.879
					C451.496,130.199,452.204,130.879,452.204,132.069 M454.3,132.012c0-2.294-1.813-3.398-3.966-3.398
					c-1.927,0-3.768,0.905-5.1,2.181c-1.87,1.813-3.06,4.505-3.06,7.14c0,3.145,1.983,4.93,5.071,4.93c1.7,0,3.57-0.538,4.73-1.275
					l0.368-1.785c-1.076,0.737-3.03,1.445-4.589,1.445c-2.238,0-3.343-1.275-3.343-3.456c0-0.34,0.028-0.737,0.085-1.048
					c0.821,0.283,2.068,0.425,2.974,0.425C451.722,137.169,454.3,134.761,454.3,132.012 M439.908,140.88
					c-0.34,0.198-0.878,0.368-1.274,0.368c-0.425,0-0.651-0.17-0.651-0.566c0-0.227,0.057-0.481,0.142-0.879l1.076-4.929
					c0.255-1.133,0.396-1.927,0.396-2.663c0-2.38-1.842-3.598-4.165-3.598c-1.699,0-3.258,0.793-4.107,1.869l1.558-7.253h-2.181
					l-4.165,19.378h2.182l1.331-6.147c0.397-1.841,0.851-3.428,1.672-4.476c0.736-0.964,1.926-1.644,3.201-1.644
					c0.765,0,1.388,0.198,1.785,0.538c0.453,0.397,0.652,0.963,0.652,1.615c0,0.623-0.114,1.274-0.284,2.067l-1.105,5.043
					c-0.085,0.426-0.198,1.049-0.198,1.474c0,1.274,0.992,1.785,1.983,1.785c0.709,0,1.445-0.256,1.87-0.511L439.908,140.88z
					 M418.122,140.88c-0.34,0.198-0.878,0.368-1.275,0.368c-0.425,0-0.65-0.17-0.65-0.566c0-0.227,0.056-0.481,0.141-0.879
					l1.077-4.929c0.255-1.133,0.396-1.927,0.396-2.663c0-2.38-1.841-3.598-4.163-3.598c-1.928,0-3.628,0.99-4.506,2.237l0.085-1.982
					h-3.399l-0.34,1.614h1.869l-2.605,12.125h2.181l1.332-6.147c0.397-1.841,0.851-3.428,1.671-4.476
					c0.737-0.964,1.928-1.644,3.202-1.644c0.766,0,1.389,0.198,1.785,0.538c0.453,0.397,0.651,0.963,0.651,1.615
					c0,0.623-0.113,1.274-0.283,2.067l-1.105,5.043c-0.085,0.426-0.197,1.049-0.197,1.474c0,1.274,0.99,1.785,1.982,1.785
					c0.708,0,1.445-0.256,1.87-0.511L418.122,140.88z M398.404,128.868l-0.34,1.614h1.869l-1.955,9.122
					c-0.112,0.482-0.197,1.077-0.197,1.474c0,1.274,0.99,1.785,1.982,1.785c0.708,0,1.445-0.256,1.87-0.511l0.283-1.473
					c-0.34,0.198-0.878,0.368-1.275,0.368c-0.425,0-0.65-0.17-0.65-0.566c0-0.227,0.056-0.481,0.141-0.879l2.323-10.935H398.404z
					 M403.475,124.73c0-0.65-0.51-1.104-1.16-1.104c-0.88,0-1.7,0.794-1.7,1.672c0,0.652,0.453,1.105,1.104,1.105
					C402.569,126.403,403.475,125.61,403.475,124.73 M385.259,135.837c-0.396,1.842-0.878,3.202-1.615,4.051
					c-0.708,0.822-1.728,1.36-2.918,1.36c-1.699,0-2.805-1.105-2.805-3.286c0-3.853,3.06-7.819,6.771-7.819
					c0.68,0,1.332,0.142,1.699,0.34L385.259,135.837z M386.081,123.229l-0.34,1.615h1.869l-0.878,4.079
					c-0.511-0.17-1.304-0.311-2.068-0.311c-5.071,0-8.981,4.646-8.981,9.434c0,2.861,1.7,4.816,4.533,4.816
					c1.729,0,3.343-0.878,4.08-1.842c0,1.161,0.878,1.729,1.926,1.729c0.652,0,1.417-0.198,1.898-0.51l0.312-1.474
					c-0.34,0.198-0.906,0.368-1.303,0.368c-0.425,0-0.652-0.17-0.652-0.566c0-0.227,0.058-0.481,0.143-0.879l3.484-16.46H386.081z
					 M372.142,132.069c0,2.152-1.927,3.598-4.815,3.598c-0.794,0-1.927-0.142-2.578-0.368c0.453-1.587,1.473-3.229,2.833-4.221
					c0.765-0.539,1.643-0.879,2.55-0.879C371.434,130.199,372.142,130.879,372.142,132.069 M374.238,132.012
					c0-2.294-1.813-3.398-3.967-3.398c-1.926,0-3.768,0.905-5.099,2.181c-1.87,1.813-3.06,4.505-3.06,7.14
					c0,3.145,1.982,4.93,5.07,4.93c1.7,0,3.57-0.538,4.731-1.275l0.369-1.785c-1.077,0.737-3.032,1.445-4.59,1.445
					c-2.238,0-3.344-1.275-3.344-3.456c0-0.34,0.028-0.737,0.085-1.048c0.822,0.283,2.068,0.425,2.976,0.425
					C371.66,137.169,374.238,134.761,374.238,132.012 M358.062,133.457c0,4.08-2.577,7.876-6.289,7.876
					c-0.596,0-1.389-0.113-1.757-0.283l2.21-10.341c0.736-0.283,1.7-0.51,2.635-0.51
					C356.957,130.199,358.062,131.276,358.062,133.457 M360.3,133.287c0-3.116-2.096-4.674-5.071-4.674
					c-0.879,0-1.954,0.17-2.635,0.425l0.538-2.522l-2.266,0.369l-0.652,2.975c-0.68,0.312-1.756,0.906-2.38,1.331l-0.396,1.87
					c0.596-0.454,1.785-1.134,2.408-1.444l-3.541,16.63h2.182l1.189-5.724c0.567,0.199,1.474,0.341,2.125,0.341
					C357.184,142.863,360.3,138.104,360.3,133.287 M343.727,132.069c0,2.152-1.927,3.598-4.816,3.598
					c-0.793,0-1.926-0.142-2.578-0.368c0.454-1.587,1.474-3.229,2.833-4.221c0.765-0.539,1.644-0.879,2.55-0.879
					C343.018,130.199,343.727,130.879,343.727,132.069 M345.823,132.012c0-2.294-1.813-3.398-3.966-3.398
					c-1.928,0-3.769,0.905-5.101,2.181c-1.87,1.813-3.059,4.505-3.059,7.14c0,3.145,1.983,4.93,5.07,4.93
					c1.7,0,3.569-0.538,4.731-1.275l0.368-1.785c-1.076,0.737-3.031,1.445-4.589,1.445c-2.238,0-3.343-1.275-3.343-3.456
					c0-0.34,0.028-0.737,0.085-1.048c0.82,0.283,2.067,0.425,2.974,0.425C343.245,137.169,345.823,134.761,345.823,132.012
					 M330.156,132.069c0,2.152-1.926,3.598-4.816,3.598c-0.793,0-1.926-0.142-2.578-0.368c0.453-1.587,1.473-3.229,2.833-4.221
					c0.765-0.539,1.643-0.879,2.55-0.879C329.448,130.199,330.156,130.879,330.156,132.069 M332.253,132.012
					c0-2.294-1.813-3.398-3.966-3.398c-1.927,0-3.768,0.905-5.1,2.181c-1.87,1.813-3.06,4.505-3.06,7.14
					c0,3.145,1.984,4.93,5.072,4.93c1.699,0,3.569-0.538,4.731-1.275l0.368-1.785c-1.076,0.737-3.031,1.445-4.589,1.445
					c-2.239,0-3.344-1.275-3.344-3.456c0-0.34,0.029-0.737,0.085-1.048c0.822,0.283,2.069,0.425,2.975,0.425
					C329.675,137.169,332.253,134.761,332.253,132.012 M315.595,128.868l0.935-4.335l-2.352,0.736l-0.765,3.599h-2.04l-0.34,1.614
					h2.04l-1.671,7.791c-0.142,0.681-0.227,1.359-0.227,1.784c0,1.814,1.303,2.806,3.173,2.806c0.992,0,2.097-0.283,2.862-0.766
					l0.34-1.643c-0.652,0.425-1.644,0.765-2.522,0.765c-0.991,0-1.643-0.481-1.643-1.502c0-0.255,0.057-0.736,0.142-1.133
					l1.728-8.103h3.286l0.34-1.614H315.595z M308.881,129.293c-0.765-0.369-2.267-0.68-3.4-0.68c-1.643,0-3.088,0.396-4.08,1.16
					c-0.963,0.709-1.501,1.758-1.501,2.862c0,1.926,1.501,2.861,3.059,3.626c1.87,0.936,2.777,1.445,2.777,2.607
					c0,1.501-1.417,2.436-3.542,2.436c-1.388,0-2.889-0.453-3.909-1.162l-0.369,1.645c1.077,0.68,2.72,1.076,4.165,1.076
					c3.06,0,5.78-1.36,5.78-4.249c0-1.843-1.19-2.721-3.457-3.854c-1.36-0.68-2.408-1.304-2.408-2.38
					c0-1.247,1.303-2.238,3.371-2.238c1.134,0,2.352,0.283,3.202,0.681L308.881,129.293z M290.069,140.88
					c-0.34,0.198-0.878,0.368-1.275,0.368c-0.425,0-0.652-0.17-0.652-0.566c0-0.227,0.057-0.481,0.142-0.879l1.077-4.929
					c0.255-1.133,0.396-1.927,0.396-2.663c0-2.38-1.841-3.598-4.164-3.598c-1.927,0-3.627,0.99-4.505,2.237l0.085-1.982h-3.4
					l-0.34,1.614h1.87l-2.606,12.125h2.181l1.332-6.147c0.396-1.841,0.85-3.428,1.671-4.476c0.737-0.964,1.927-1.644,3.202-1.644
					c0.765,0,1.388,0.198,1.785,0.538c0.453,0.397,0.651,0.963,0.651,1.615c0,0.623-0.113,1.274-0.283,2.067l-1.105,5.043
					c-0.085,0.426-0.198,1.049-0.198,1.474c0,1.274,0.991,1.785,1.983,1.785c0.708,0,1.445-0.256,1.87-0.511L290.069,140.88z
					 M274.685,128.868l-4.504,8.754c-0.34,0.623-0.793,1.785-1.077,2.605c0.029-0.765,0-1.783-0.085-2.549l-0.878-8.811h-2.068
					l0.34,2.974l-3.117,5.78c-0.425,0.793-0.935,1.841-1.218,2.605c0-0.765-0.085-1.868-0.17-2.549l-0.991-8.811h-2.182
					l1.757,13.739h1.699l4.505-8.187l0.935,8.187h1.728l7.225-13.739H274.685z M254.004,133.486c0,2.209-0.822,4.759-2.351,6.374
					c-0.794,0.85-1.814,1.417-2.975,1.417c-1.898,0-2.89-1.275-2.89-3.287c0-2.21,0.822-4.788,2.351-6.403
					c0.794-0.849,1.814-1.388,2.975-1.388C253.012,130.199,254.004,131.474,254.004,133.486 M256.242,133.372
					c0-3.06-1.983-4.759-4.816-4.759c-1.927,0-3.598,0.735-4.845,1.955c-1.926,1.841-3.031,4.786-3.031,7.507
					c0,3.06,1.955,4.788,4.816,4.788c1.927,0,3.598-0.736,4.845-1.955C255.137,139.067,256.242,136.092,256.242,133.372
					 M239.017,128.868l0.935-4.335l-2.351,0.736l-0.765,3.599h-2.04l-0.34,1.614h2.04l-1.672,7.791
					c-0.141,0.681-0.226,1.359-0.226,1.784c0,1.814,1.303,2.806,3.173,2.806c0.991,0,2.096-0.283,2.861-0.766l0.34-1.643
					c-0.651,0.425-1.643,0.765-2.521,0.765c-0.992,0-1.644-0.481-1.644-1.502c0-0.255,0.057-0.736,0.142-1.133l1.728-8.103h3.287
					l0.34-1.614H239.017z M221.878,135.837c-0.397,1.842-0.879,3.202-1.615,4.051c-0.709,0.851-1.672,1.36-2.862,1.36
					c-1.7,0-2.663-1.19-2.663-3.286c0-3.853,3.032-7.819,6.715-7.819c0.538,0,1.189,0.142,1.586,0.368L221.878,135.837z
					 M224.229,129.236c-0.708-0.368-1.728-0.623-2.748-0.623c-5.071,0-8.981,4.646-8.981,9.434c0,2.946,1.671,4.816,4.448,4.816
					c1.7,0,3.258-0.851,3.995-1.842c0,0.991,0.708,1.729,1.926,1.729c0.652,0,1.388-0.228,1.87-0.51l0.312-1.474
					c-0.34,0.198-0.935,0.368-1.332,0.368c-0.425,0-0.652-0.17-0.652-0.566c0-0.227,0.057-0.481,0.142-0.879l2.352-10.821
					L224.229,129.236z"/>
			</g>
		</g>
		<path clip-path="url(#SVGID_2_)" fill="#BBF357" d="M94.862,136.284v-17.063c4.841-1.742,7.923-5.059,7.923-10.174
			c0-19.971-48.907-8.18-48.907-44.818c0-16.704,11.231-28.099,31.837-29.911v16.479c-7.038,1.502-10.768,5.333-10.768,10.757
			c0,19.187,49.071,8.018,49.071,44.817C124.018,124.581,111.741,133.971,94.862,136.284 M85.716,136.87
			c-10.581-0.059-21.886-2.395-30.896-6.278l0.001-0.02h-0.115v-24.904h15.079v12.563c5.334,1.532,10.777,2.452,15.389,2.452
			c0.18,0,0.36-0.01,0.542-0.012V136.87z M94.863,34.129c8.089,0.434,16.657,2.345,22.059,4.145h0.453v24.522h-15.077V50.993
			c-2.5-0.455-4.993-0.757-7.435-0.858V34.129z M87.111,6.282C43.142,6.282,7.5,41.923,7.5,85.891
			c0,43.969,35.642,79.61,79.611,79.61c43.967,0,79.609-35.642,79.609-79.61C166.72,41.923,131.078,6.282,87.111,6.282"/>
	</g>
</g>
</svg>
